<svg width="143" height="142" viewBox="0 0 143 142" fill="none" xmlns="http://www.w3.org/2000/svg">
<path d="M118 0H25C11.1929 0 0 11.1929 0 25V117C0 130.807 11.1929 142 25 142H118C131.807 142 143 130.807 143 117V25C143 11.1929 131.807 0 118 0Z" fill="#41B883"/>
<path d="M92.9446 49.5922C75.9407 32.7072 54.0052 22.478 30.3467 20.2234C24.835 19.6982 20.3362 24.2374 20.3362 29.774V29.774C20.3362 35.3107 24.8406 39.7355 30.3384 40.39C48.5968 42.5633 65.4799 50.6744 78.6675 63.7698C91.8212 76.8317 99.9815 93.5447 102.195 111.622C102.873 117.156 107.327 121.693 112.903 121.693V121.693C118.478 121.693 123.051 117.162 122.507 111.613C120.209 88.1734 109.915 66.4438 92.9446 49.5922Z" fill="#34495E"/>
<path d="M30.1198 54.4C24.6411 53.6014 20.1269 58.1664 20.1269 63.7031V63.7031C20.1269 69.2397 24.6638 73.6204 30.0834 74.7526C48.6977 78.6411 63.4005 93.2053 67.3691 111.671C68.5407 117.122 72.9498 121.694 78.5254 121.694V121.694C84.1011 121.694 88.7003 117.147 87.8735 111.633C83.4482 82.12 59.8596 58.7353 30.1198 54.4Z" fill="#34495E"/>
<path d="M34.4636 122.251C42.4505 122.251 48.9252 115.821 48.9252 107.89C48.9252 99.9592 42.4505 93.5298 34.4636 93.5298C26.4767 93.5298 20.002 99.9592 20.002 107.89C20.002 115.821 26.4767 122.251 34.4636 122.251Z" fill="#34495E"/>
</svg>
